<?xml version="1.0" standalone="no"?>
<!DOCTYPE svg PUBLIC "-//W3C//DTD SVG 1.1//EN" "http://www.w3.org/Graphics/SVG/1.1/DTD/svg11.dtd" >
<svg>
<metadata>
Created by FontForge 20090622 at Fri Jul 15 13:18:54 2016
 By deploy user
Copyright (c) 1989, 1990 Adobe Systems Incorporated.  All Rights Reserved.Trade Gothic is a trademark of Linotype AG and/or its subsidiaries.
</metadata>
<defs>
<font id="TradeGothic-LightOblique" horiz-adv-x="556" >
  <font-face 
    font-family="TradeGothic Light"
    font-weight="300"
    font-style="oblique"
    font-stretch="normal"
    units-per-em="1000"
    panose-1="2 11 4 0 0 0 0 0 0 0"
    ascent="788"
    descent="-212"
    x-height="520"
    cap-height="722"
    bbox="-167 -212 1000 949"
    underline-thickness="50"
    underline-position="-50"
    slope="-12.5"
    unicode-range="U+0020-U+FB02"
  />
<missing-glyph horiz-adv-x="278" 
 />
    <glyph glyph-name=".notdef" horiz-adv-x="278" 
 />
    <glyph glyph-name=".null" horiz-adv-x="0" 
 />
    <glyph glyph-name="nonmarkingreturn" horiz-adv-x="333" 
 />
    <glyph glyph-name="space" unicode=" " horiz-adv-x="278" 
 />
    <glyph glyph-name="space" unicode="&#xa0;" horiz-adv-x="278" 
 />
    <glyph glyph-name="exclam" unicode="!" horiz-adv-x="222" 
d="M68 722h86l-18 -500h-50zM154 0h-86v90h86v-90z" />
    <glyph glyph-name="quotedbl" unicode="&#x22;" horiz-adv-x="333" 
d="M86 496v226h50v-226h-50zM197 496v226h50v-226h-50z" />
    <glyph glyph-name="numbersign" unicode="#" 
d="M502 283v-48h-113l-33 -235h-49l33 235h-148l-33 -235h-49l33 235h-118v48h124l23 157h-118v48h124l33 234h50l-33 -234h147l33 234h50l-33 -234h106v-48h-113l-22 -157h106zM369 440h-148l-22 -157h147z" />
    <glyph glyph-name="dollar" unicode="$" 
d="M255 722v70h48v-70q64 -3 116.5 -38.5t72.5 -79.5q-1 0 -20.5 -16t-22.5 -18q-50 91 -146 103v-282q45 -13 77.5 -27t67 -37t53 -58t18.5 -80q0 -88 -63 -138t-153 -51v-119h-48v119q-74 3 -134.5 41.5t-91.5 104.5l47 33q25 -57 72.5 -94t106.5 -37v297
q-200 56 -200 193q0 87 55.5 134.5t144.5 49.5zM255 405v269q-60 0 -103 -36t-43 -95q0 -32 12 -56t34.5 -39.5t45.5 -25t54 -17.5zM303 332v-284q64 1 113 42t49 101q0 25 -11 46t-24 33.5t-40 26.5t-41 19z" />
    <glyph glyph-name="percent" unicode="%" horiz-adv-x="889" 
d="M246 722q68 0 116 -48t48 -116t-48 -116t-116 -48t-116 48t-48 116t48 116t116 48zM246 674q-48 0 -82.5 -34t-33.5 -82q-1 -48 33.5 -82t82.5 -34t82.5 34t33.5 82q1 48 -33.5 82t-82.5 34zM643 328q67 0 115.5 -48t48.5 -116t-48.5 -116t-115.5 -48t-115.5 48
t-48.5 116t48.5 116t115.5 48zM643 280q-48 0 -82.5 -34t-33.5 -82q-1 -48 33.5 -82t82.5 -34t82.5 34t33.5 82q1 48 -33.5 82t-82.5 34zM684 732l-425 -742h-52l424 742h53z" />
    <glyph glyph-name="ampersand" unicode="&#x26;" horiz-adv-x="667" 
d="M109 172q0 -60 46 -94t108 -34q94 0 161 70q-34 31 -91.5 110t-92.5 136q-67 -37 -99 -78t-32 -110zM218 574q0 -70 44 -132q51 28 83.5 70.5t32.5 85.5q0 36 -20.5 58t-60.5 22q-79 0 -79 -104zM539 340l62 -12q-26 -118 -91 -213q59 -61 124 -65v-60q-92 4 -168 79
q-87 -79 -206 -79q-91 0 -154 48.5t-63 137.5q0 76 36 124.5t130 112.5q-57 85 -57 168q0 71 39.5 111t108.5 40q63 0 103.5 -37t40.5 -101q0 -35 -11.5 -64.5t-37 -57t-44 -43t-55.5 -42.5q15 -21 50.5 -74.5t62.5 -89.5t55 -66q55 84 75 183z" />
    <glyph glyph-name="quotesingle" unicode="'" horiz-adv-x="222" 
d="M86 496v226h50v-226h-50z" />
    <glyph glyph-name="parenleft" unicode="(" horiz-adv-x="333" 
d="M206 732h72q-75 -88 -112.5 -195.5t-37.5 -211.5t37.5 -211.5t112.5 -195.5h-72q-67 90 -102.5 198t-35.5 209q0 102 35.5 209.5t102.5 197.5z" />
    <glyph glyph-name="parenright" unicode=")" horiz-adv-x="333" 
d="M127 -82h-72q75 88 112.5 195.5t37.5 211.5t-37.5 211.5t-112.5 195.5h72q67 -90 102.5 -197.5t35.5 -209.5q0 -101 -35.5 -209t-102.5 -198z" />
    <glyph glyph-name="asterisk" unicode="*" horiz-adv-x="500" 
d="M278 722l-11 -141l130 53l16 -50l-140 -34l91 -103l-44 -35l-68 124l-70 -124l-45 30l93 108l-143 30l18 52l132 -51l-13 141h54z" />
    <glyph glyph-name="plus" unicode="+" horiz-adv-x="600" 
d="M273 287v233h54v-233h233v-54h-233v-233h-54v233h-233v54h233z" />
    <glyph glyph-name="comma" unicode="," horiz-adv-x="278" 
d="M96 90h86v-90l-63 -150h-39l58 150h-42v90z" />
    <glyph glyph-name="hyphen" unicode="-" horiz-adv-x="333" 
d="M291 233h-249v54h249v-54z" />
    <glyph glyph-name="hyphen" unicode="&#xad;" horiz-adv-x="333" 
d="M291 233h-249v54h249v-54z" />
    <glyph glyph-name="period" unicode="." horiz-adv-x="278" 
d="M182 0h-86v90h86v-90z" />
    <glyph glyph-name="slash" unicode="/" horiz-adv-x="278" 
d="M290 732l-243 -742h-59l247 742h55z" />
    <glyph glyph-name="zero" unicode="0" 
d="M278 732q125 0 187.5 -103.5t62.5 -267.5t-62.5 -267.5t-187.5 -103.5t-187.5 103.5t-62.5 267.5t62.5 267.5t187.5 103.5zM278 678q-94 0 -139 -84.5t-45 -232.5t45 -232.5t139 -84.5t139 84.5t45 232.5t-45 232.5t-139 84.5z" />
    <glyph glyph-name="one" unicode="1" 
d="M444 0h-310v54h124v606l-138 -20v39l162 53h42v-678h120v-54z" />
    <glyph glyph-name="two" unicode="2" 
d="M110 515l-58 11q18 97 80.5 151.5t154.5 54.5q98 0 155 -54.5t57 -147.5q0 -70 -37 -123.5t-140 -126.5q-214 -151 -218 -226h396v-54h-456v42q0 99 247 282q70 53 101 85t39 55t8 64q0 68 -40 109t-119 41q-65 0 -108.5 -41.5t-61.5 -121.5z" />
    <glyph glyph-name="three" unicode="3" 
d="M14 134l53 30q32 -67 76 -93.5t117 -26.5q178 0 178 158q0 154 -208 154h-66v54h54q198 0 198 140q0 128 -157 128q-91 0 -166 -94l-47 34q95 114 218 114q38 0 74 -9t69.5 -28t54 -55t20.5 -84q0 -63 -26.5 -102.5t-89.5 -67.5q138 -52 138 -182q0 -109 -66.5 -161.5
t-180.5 -52.5q-183 0 -243 144z" />
    <glyph glyph-name="four" unicode="4" 
d="M346 660l-266 -424h273v424h-7zM14 182v51l317 489h88v-487h109v-53h-109v-182h-66v182h-339z" />
    <glyph glyph-name="five" unicode="5" 
d="M124 327l-52 9l32 386h359v-54h-310l-20 -251q67 64 162 64q101 0 161 -70t60 -172q0 -112 -65.5 -180.5t-186.5 -68.5q-70 0 -128.5 35t-89.5 100l54 35q57 -116 172 -116q91 0 137.5 55.5t46.5 134.5q0 87 -45 140t-125 53q-49 0 -95.5 -27t-66.5 -73z" />
    <glyph glyph-name="six" unicode="6" 
d="M495 672l-30 -49q-47 55 -142 55q-59 0 -103.5 -30.5t-69 -80t-36.5 -103t-12 -108.5q38 43 89 69.5t105 26.5q107 0 169.5 -67t62.5 -171q0 -100 -71 -162t-173 -62q-58 0 -102.5 20.5t-71.5 53t-44 79t-23.5 92.5t-6.5 100q0 71 17 139t50 127t90.5 95t130.5 36
q92 0 171 -60zM462 225q0 77 -47 125t-130 48q-69 0 -125 -56t-56 -85q0 -97 49.5 -155t132.5 -58t129.5 48t46.5 133z" />
    <glyph glyph-name="seven" unicode="7" 
d="M55 668v54h446v-39l-307 -683h-71l308 668h-376z" />
    <glyph glyph-name="eight" unicode="8" 
d="M278 732q105 0 165.5 -47t60.5 -136q0 -120 -138 -169q166 -75 166 -194q0 -196 -254 -196t-254 196q0 119 166 194q-138 49 -138 169q0 89 60.5 136t165.5 47zM90 186q0 -70 52 -106t136 -36t136 36t52 106q0 55 -44.5 90.5t-143.5 75.5q-99 -40 -143.5 -75.5
t-44.5 -90.5zM118 552q0 -103 160 -146q160 43 160 146q0 62 -43.5 94t-116.5 32t-116.5 -32t-43.5 -94z" />
    <glyph glyph-name="nine" unicode="9" 
d="M51 50l30 51q60 -57 139 -57q60 0 105 27t70 73.5t37 100.5t12 115q-38 -44 -89 -71t-105 -27q-106 0 -169 68t-63 162q0 110 70.5 175t173.5 65q58 0 102.5 -20.5t71.5 -53t44 -79t23.5 -92.5t6.5 -100q0 -73 -14 -139.5t-43.5 -126.5t-85 -95.5t-129.5 -35.5
q-108 0 -187 60zM84 497q0 -80 47 -130.5t130 -50.5q37 0 72.5 18.5t58 43.5t36.5 47.5t14 33.5q0 101 -49.5 160t-132.5 59t-129.5 -48t-46.5 -133z" />
    <glyph glyph-name="colon" unicode=":" horiz-adv-x="278" 
d="M182 0h-86v90h86v-90zM182 304h-86v90h86v-90z" />
    <glyph glyph-name="semicolon" unicode=";" horiz-adv-x="278" 
d="M96 90h86v-90l-63 -150h-39l58 150h-42v90zM182 304h-86v90h86v-90z" />
    <glyph glyph-name="less" unicode="&#x3c;" horiz-adv-x="600" 
d="M560 52v-58l-520 238v56l520 238v-58l-452 -208z" />
    <glyph glyph-name="equal" unicode="=" horiz-adv-x="600" 
d="M560 387v-54h-520v54h520zM560 187v-54h-520v54h520z" />
    <glyph glyph-name="greater" unicode="&#x3e;" horiz-adv-x="600" 
d="M40 -6v58l452 208l-452 208v58l520 -238v-56z" />
    <glyph glyph-name="question" unicode="?" horiz-adv-x="389" 
d="M79 584l-50 25q45 123 165 123q69 0 117 -43t48 -120q0 -37 -17.5 -70t-42.5 -58.5l-50 -50.5t-42.5 -56.5t-17.5 -65.5v-48h-54v72q0 28 16.5 57t39.5 54.5l46 52t39.5 59.5t16.5 67q0 45 -28 70.5t-72 25.5q-77 0 -114 -94zM202 0h-86v90h86v-90z" />
    <glyph glyph-name="at" unicode="@" horiz-adv-x="800" 
d="M338 189q66 0 118 84t52 160q0 36 -25.5 66.5t-55.5 30.5q-73 0 -125 -79.5t-52 -159.5q0 -45 25.5 -73.5t62.5 -28.5zM540 497l26 66h54l-98 -295q-13 -39 -13 -56q0 -29 26 -29q60 0 112.5 78.5t52.5 164.5q0 116 -84 189t-199 73q-134 0 -225.5 -98t-91.5 -233
q0 -133 93.5 -228t225.5 -95q76 0 148 37.5t117 100.5h52q-46 -84 -133 -133t-184 -49q-157 0 -264 109.5t-107 264.5q0 152 108.5 260t258.5 108q142 0 239.5 -88t97.5 -221q0 -112 -73 -199t-154 -87q-28 0 -47 18t-21 52l-2 -2q-66 -68 -131 -68q-61 0 -98.5 43
t-37.5 106q0 113 69.5 204.5t173.5 91.5q78 0 109 -85z" />
    <glyph glyph-name="A" unicode="A" horiz-adv-x="611" 
d="M186 290h241l-120 378h-2zM25 0l231 722h101l228 -722h-70l-73 236h-273l-74 -236h-70z" />
    <glyph glyph-name="B" unicode="B" horiz-adv-x="667" 
d="M166 348v-294h171q95 0 139.5 35.5t44.5 112.5q0 66 -50.5 106t-154.5 40h-150zM166 668v-266h157q169 0 169 134q0 76 -46.5 104t-149.5 28h-130zM100 0v722h202q133 0 194.5 -43.5t61.5 -137.5q0 -58 -24 -94.5t-78 -61.5q131 -58 131 -187q0 -107 -66 -152.5
t-191 -45.5h-230z" />
    <glyph glyph-name="C" unicode="C" horiz-adv-x="611" 
d="M557 523l-61 -13q-49 168 -176 168q-102 0 -154 -88t-52 -229q0 -142 53 -229.5t160 -87.5q80 0 120.5 47t61.5 129l62 -11q-22 -104 -80 -161.5t-165 -57.5q-130 0 -204 101t-74 270t74 270t204 101q92 0 149 -57t82 -152z" />
    <glyph glyph-name="D" unicode="D" horiz-adv-x="667" 
d="M166 668v-614h140q119 0 182.5 80t63.5 227t-63.5 227t-182.5 80h-140zM100 0v722h204q158 0 236 -102t78 -259t-78 -259t-236 -102h-204z" />
    <glyph glyph-name="E" unicode="E" 
d="M531 0h-431v722h412v-54h-346v-266h249v-54h-249v-294h365v-54z" />
    <glyph glyph-name="F" unicode="F" 
d="M166 0h-66v722h424v-54h-358v-266h261v-54h-261v-348z" />
    <glyph glyph-name="G" unicode="G" horiz-adv-x="667" 
d="M572 523l-62 -11q-18 75 -64 120.5t-122 45.5q-96 0 -153 -85.5t-57 -231.5q0 -63 10.5 -115.5t35 -100t71.5 -74.5t114 -27q75 0 122 50t47 124v66h-182v54h248v-338h-57v71h-2q-33 -43 -77.5 -62t-118.5 -19q-124 0 -200.5 98t-76.5 273q0 173 79.5 272t200.5 99
q98 0 161.5 -57t82.5 -152z" />
    <glyph glyph-name="H" unicode="H" horiz-adv-x="722" 
d="M100 0v722h66v-320h390v320h66v-722h-66v348h-390v-348h-66z" />
    <glyph glyph-name="I" unicode="I" horiz-adv-x="278" 
d="M106 0v722h66v-722h-66z" />
    <glyph glyph-name="J" unicode="J" horiz-adv-x="444" 
d="M0 86l53 31q24 -41 46.5 -57t67.5 -16q97 0 97 128v550h66v-570q0 -79 -44.5 -120.5t-122.5 -41.5q-63 0 -98.5 22.5t-64.5 73.5z" />
    <glyph glyph-name="K" unicode="K" horiz-adv-x="611" 
d="M100 0v722h66v-392l330 392h81l-233 -276l261 -446h-74l-229 398l-136 -157v-241h-66z" />
    <glyph glyph-name="L" unicode="L" horiz-adv-x="500" 
d="M100 0v722h66v-668h322v-54h-388z" />
    <glyph glyph-name="M" unicode="M" horiz-adv-x="833" 
d="M166 0h-66v722h116l199 -612h2l200 612h116v-722h-66v668h-2l-217 -668h-63l-217 668h-2v-668z" />
    <glyph glyph-name="N" unicode="N" horiz-adv-x="722" 
d="M100 0v722h111l343 -602h2v602h66v-722h-68l-386 668h-2v-668h-66z" />
    <glyph glyph-name="O" unicode="O" horiz-adv-x="667" 
d="M333 732q133 0 209 -103.5t76 -267.5t-76 -267.5t-209 -103.5t-209 103.5t-76 267.5t76 267.5t209 103.5zM333 44q101 0 160 83.5t59 233.5t-59 233.5t-160 83.5t-160 -83.5t-59 -233.5t59 -233.5t160 -83.5z" />
    <glyph glyph-name="P" unicode="P" horiz-adv-x="611" 
d="M166 0h-66v722h218q125 0 184.5 -53t59.5 -148t-59.5 -148t-184.5 -53h-152v-320zM166 668v-294h152q178 0 178 147t-178 147h-152z" />
    <glyph glyph-name="Q" unicode="Q" horiz-adv-x="667" 
d="M644 0v-60q-118 0 -169 91q-61 -41 -142 -41q-133 0 -209 103.5t-76 267.5t76 267.5t209 103.5t209 -103.5t76 -267.5q0 -191 -98 -292q23 -40 49.5 -54.5t74.5 -14.5zM352 157v65q86 -15 140 -96q60 83 60 235q0 150 -59 233.5t-160 83.5t-160 -83.5t-59 -233.5
t59 -233.5t160 -83.5q66 0 114 36q-23 40 -43.5 56t-51.5 21z" />
    <glyph glyph-name="R" unicode="R" horiz-adv-x="667" 
d="M166 668v-284h178q72 0 114 38t42 104q0 68 -39.5 105t-116.5 37h-178zM416 342l177 -342h-72l-168 330h-187v-330h-66v722h244q105 0 163.5 -53t58.5 -143q0 -146 -150 -184z" />
    <glyph glyph-name="S" unicode="S" 
d="M32 183l61 19q21 -82 70.5 -120t135.5 -38q67 0 105.5 39t38.5 105q0 53 -40.5 87.5t-97.5 54t-114.5 41.5t-98 65t-40.5 109q0 83 55 135t153 52q86 0 146 -45t85 -128l-57 -17q-44 136 -174 136q-64 0 -103 -35t-39 -98q0 -42 27.5 -70.5t119.5 -63.5
q102 -38 154 -71.5t71 -68.5t19 -90q0 -89 -64 -140t-156 -51q-103 0 -165 47t-92 146z" />
    <glyph glyph-name="T" unicode="T" 
d="M31 668v54h494v-54h-214v-668h-66v668h-214z" />
    <glyph glyph-name="U" unicode="U" horiz-adv-x="722" 
d="M100 722h66v-492q0 -101 48 -143.5t147 -42.5t147 42.5t48 143.5v492h66v-486q0 -246 -261 -246t-261 246v486z" />
    <glyph glyph-name="V" unicode="V" 
d="M242 0l-234 722h70l196 -628h2l202 628h70l-240 -722h-66z" />
    <glyph glyph-name="W" unicode="W" horiz-adv-x="833" 
d="M207 0l-191 722h67l154 -602h2l144 602h66l141 -602h2l157 602h67l-193 -722h-66l-141 594h-2l-141 -594h-66z" />
    <glyph glyph-name="X" unicode="X" 
d="M237 378l-212 344h78l173 -288l169 288h78l-208 -344l229 -378h-78l-190 316l-186 -316h-78z" />
    <glyph glyph-name="Y" unicode="Y" 
d="M241 0v306l-221 416h74l178 -357l190 357h74l-229 -416v-306h-66z" />
    <glyph glyph-name="Z" unicode="Z" 
d="M77 668v54h428v-56l-377 -612h382v-54h-464v54l377 614h-346z" />
    <glyph glyph-name="bracketleft" unicode="[" horiz-adv-x="333" 
d="M88 722h186v-36h-126v-722h126v-36h-186v794z" />
    <glyph glyph-name="backslash" unicode="\" horiz-adv-x="278" 
d="M231 -10l-243 742h55l247 -742h-59z" />
    <glyph glyph-name="bracketright" unicode="]" horiz-adv-x="333" 
d="M245 -72h-186v36h126v722h-126v36h186v-794z" />
    <glyph glyph-name="asciicircum" unicode="^" horiz-adv-x="600" 
d="M273 722h53l218 -426h-66l-180 354l-176 -354h-66z" />
    <glyph glyph-name="underscore" unicode="_" horiz-adv-x="500" 
d="M500 -125h-500v50h500v-50z" />
    <glyph glyph-name="grave" unicode="`" horiz-adv-x="222" 
d="M-14 716h77l111 -138h-51z" />
    <glyph glyph-name="a" unicode="a" horiz-adv-x="500" 
d="M424 0h-58l-8 63q-50 -39 -91 -56t-98 -17q-62 0 -102.5 36.5t-40.5 99.5q0 24 5 43.5t11.5 35.5t22.5 30t28 23.5t38.5 20.5t44 17.5t54.5 15.5l59.5 14.5t69.5 15.5v36q0 54 -27 79t-92 25q-91 0 -151 -94l-40 24q63 118 193 118q89 0 131.5 -39t42.5 -124v-272
q0 -48 8 -95zM356 124v170q-87 -19 -142.5 -38t-82.5 -40.5t-36 -41t-9 -47.5q0 -42 25.5 -65.5t67.5 -23.5t90 23t87 63z" />
    <glyph glyph-name="b" unicode="b" 
d="M92 0v722h60v-270q40 42 76 60t87 18q90 0 147.5 -75.5t57.5 -191.5q0 -133 -54 -203t-155 -70q-112 0 -167 78l-10 -68h-42zM152 389v-256q33 -46 69 -70.5t87 -24.5q75 0 113.5 59.5t38.5 154.5q0 105 -41 167.5t-120 62.5q-41 0 -85.5 -31t-61.5 -62z" />
    <glyph glyph-name="c" unicode="c" horiz-adv-x="500" 
d="M450 389l-55 -15q-49 108 -135 108q-164 0 -164 -222q0 -101 43.5 -161.5t120.5 -60.5q52 0 86.5 26.5t69.5 81.5l48 -23q-79 -133 -204 -133q-107 0 -165.5 74.5t-58.5 195.5q0 131 60.5 200.5t163.5 69.5q139 0 190 -141z" />
    <glyph glyph-name="d" unicode="d" 
d="M464 722v-722h-42l-10 68q-55 -78 -167 -78q-101 0 -155 70t-54 203q0 116 57.5 191.5t147.5 75.5q51 0 87 -18t76 -60v270h60zM404 133v256q-17 31 -61.5 62t-85.5 31q-79 0 -120 -62.5t-41 -167.5q0 -95 38.5 -154.5t113.5 -59.5q51 0 87 24.5t69 70.5z" />
    <glyph glyph-name="e" unicode="e" horiz-adv-x="500" 
d="M458 258h-362q0 -96 41.5 -158t125.5 -62q50 0 81.5 21.5t70.5 83.5l49 -26q-43 -70 -88 -98.5t-118 -28.5q-105 0 -163.5 68t-58.5 202q0 122 58 196t156 74q103 0 155.5 -73.5t52.5 -198.5zM96 306h302q-20 175 -150 176q-38 0 -68 -17.5t-47.5 -44.5t-27 -56.5
t-9.5 -57.5z" />
    <glyph glyph-name="f" unicode="f" horiz-adv-x="278" 
d="M262 472h-106v-472h-60v472h-86v48h86v74q0 69 30 103.5t95 34.5q21 0 65 -8v-50q-32 10 -59 10q-36 0 -53.5 -19.5t-17.5 -63.5v-81h106v-48z" />
    <glyph glyph-name="g" unicode="g" horiz-adv-x="500" 
d="M481 540v-54q-59 0 -83 -24q37 -45 37 -109q0 -91 -56 -136.5t-145 -45.5q-38 0 -84 16q-48 -17 -48 -50q0 -17 10.5 -25.5t46 -14t104.5 -5.5q221 0 221 -135q0 -63 -56 -102t-181 -39q-123 0 -175 34.5t-52 88.5q0 37 20 64t71 46v2q-69 15 -69 68q0 31 24 56.5
t54 31.5q-75 51 -75 136q0 86 56 136.5t150 50.5q67 0 121 -36q46 46 109 46zM234 38q-82 0 -118 -25t-36 -63q0 -40 40 -63t118 -23q186 0 186 89q0 85 -190 85zM105 349q0 -64 38 -97t97 -33q135 0 135 130q0 67 -35 100t-100 33q-63 0 -99 -36t-36 -97z" />
    <glyph glyph-name="h" unicode="h" 
d="M142 0h-60v722h60v-284q46 48 85.5 70t92.5 22q154 0 154 -175v-355h-60v349q0 67 -24 100t-82 33q-11 0 -20 -1t-19.5 -5t-17 -6t-17.5 -9.5l-16.5 -11t-18 -14.5l-17 -15l-20 -18t-20.5 -19v-383z" />
    <glyph glyph-name="i" unicode="i" horiz-adv-x="222" 
d="M141 520v-520h-60v520h60zM141 634h-60v88h60v-88z" />
    <glyph glyph-name="j" unicode="j" horiz-adv-x="222" 
d="M-20 -178v49q25 -7 42 -7q59 0 59 54v602h60v-603q0 -54 -27 -77.5t-80 -23.5q-33 0 -54 6zM141 634h-60v88h60v-88z" />
    <glyph glyph-name="k" unicode="k" horiz-adv-x="500" 
d="M142 0h-60v722h60v-478l241 276h69l-169 -194l195 -326h-67l-166 284l-103 -116v-168z" />
    <glyph glyph-name="l" unicode="l" horiz-adv-x="222" 
d="M81 0v722h60v-722h-60z" />
    <glyph glyph-name="m" unicode="m" horiz-adv-x="833" 
d="M142 0h-60v520h60v-79q45 48 81 68.5t92 20.5q44 0 79.5 -26t46.5 -69q40 46 80 70.5t92 24.5q137 0 137 -141v-389h-60v395q0 87 -90 87q-34 0 -82 -30.5t-72 -68.5v-383h-60v395q0 87 -90 87q-34 0 -82 -30.5t-72 -68.5v-383z" />
    <glyph glyph-name="n" unicode="n" 
d="M142 0h-60v520h60v-82q46 48 85.5 70t92.5 22q154 0 154 -175v-355h-60v349q0 67 -24 100t-82 33q-11 0 -20 -1t-19.5 -5t-17 -6t-17.5 -9.5l-16.5 -11t-18 -14.5l-17 -15l-20 -18t-20.5 -19v-383z" />
    <glyph glyph-name="o" unicode="o" horiz-adv-x="500" 
d="M250 482q-154 0 -154 -222t154 -222t154 222t-154 222zM250 530q113 0 163.5 -76t50.5 -194t-50.5 -194t-163.5 -76t-163.5 76t-50.5 194t50.5 194t163.5 76z" />
    <glyph glyph-name="p" unicode="p" 
d="M92 -184v704h60v-80h2q61 90 157 90q97 0 153 -80t56 -193q0 -132 -55.5 -199.5t-149.5 -67.5q-51 0 -87 18t-76 60v-252h-60zM152 387v-256q17 -31 61.5 -62t85.5 -31q80 0 120.5 60t40.5 170q0 88 -39.5 151t-112.5 63q-31 0 -60 -14.5t-46.5 -30.5t-49.5 -50z" />
    <glyph glyph-name="q" unicode="q" 
d="M464 516v-700h-60v251q-40 -41 -76 -59t-87 -18q-90 0 -147.5 75t-57.5 190q0 132 54 201.5t155 69.5q97 0 167 -77l10 67h42zM404 130v254q-33 46 -69 70t-87 24q-75 0 -113.5 -59t-38.5 -153q0 -104 41 -166t120 -62q41 0 85.5 31t61.5 61z" />
    <glyph glyph-name="r" unicode="r" horiz-adv-x="333" 
d="M138 0h-60v520h60v-99h2q22 49 62 79t88 30h27v-58h-27q-53 0 -102.5 -53.5t-49.5 -124.5v-294z" />
    <glyph glyph-name="s" unicode="s" horiz-adv-x="444" 
d="M25 95l44 31q35 -51 71.5 -69.5t89.5 -18.5q49 0 82.5 28.5t33.5 70.5q0 35 -22.5 58t-56.5 33l-74 22t-74 24.5t-56.5 41.5t-22.5 72q0 70 47 106t118 36q121 0 179 -94l-46 -32q-57 78 -135 78q-46 0 -74.5 -23t-28.5 -68q0 -35 31.5 -55t76.5 -31.5t90 -26.5t76.5 -50
t31.5 -91q0 -67 -53 -107t-127 -40q-131 0 -201 105z" />
    <glyph glyph-name="t" unicode="t" horiz-adv-x="278" 
d="M10 520h78v170h60v-170h114v-48h-114v-381q0 -53 53 -53q26 0 61 11v-50q-60 -9 -61 -9q-62 0 -87.5 21.5t-25.5 69.5v391h-78v48z" />
    <glyph glyph-name="u" unicode="u" 
d="M414 520h60v-520h-60v82q-46 -48 -85.5 -70t-92.5 -22q-154 0 -154 175v355h60v-349q0 -67 24 -100t82 -33q11 0 20 1t19.5 5t17 6t17.5 9.5l16.5 11t18 14.5l17 15l20 18t20.5 19v383z" />
    <glyph glyph-name="v" unicode="v" horiz-adv-x="444" 
d="M192 0l-178 520h64l142 -428h2l144 428h64l-179 -520h-59z" />
    <glyph glyph-name="w" unicode="w" horiz-adv-x="667" 
d="M152 0l-145 520h61l114 -418h2l119 418h59l116 -418h2l117 418h62l-151 -520h-59l-117 418h-2l-116 -418h-62z" />
    <glyph glyph-name="x" unicode="x" horiz-adv-x="444" 
d="M222 219l-140 -219h-72l176 276l-156 244h72l120 -188l120 188h72l-156 -244l176 -276h-72z" />
    <glyph glyph-name="y" unicode="y" horiz-adv-x="444" 
d="M78 520l143 -423h2l145 423h64l-194 -557q-28 -80 -63 -113.5t-103 -33.5q-35 0 -56 6v49q1 0 23.5 -3.5t36.5 -3.5q35 0 66 34.5t51 109.5l-181 512h66z" />
    <glyph glyph-name="z" unicode="z" horiz-adv-x="444" 
d="M49 472v48h356v-38l-300 -434h308v-48h-388v38l300 434h-276z" />
    <glyph glyph-name="braceleft" unicode="{" horiz-adv-x="333" 
d="M44 307v36q33 0 46.5 20t13.5 61v195q0 54 23 83.5t65 29.5h62v-36h-50q-21 0 -30.5 -13t-9.5 -53v-197q0 -90 -72 -107v-2q72 -17 72 -107v-197q0 -40 9.5 -53t30.5 -13h50v-36h-62q-42 0 -65 29.5t-23 83.5v195q0 41 -13.5 61t-46.5 20z" />
    <glyph glyph-name="bar" unicode="|" horiz-adv-x="222" 
d="M84 -10v742h54v-742h-54z" />
    <glyph glyph-name="braceright" unicode="}" horiz-adv-x="333" 
d="M289 343v-36q-33 0 -46.5 -20t-13.5 -61v-195q0 -54 -23 -83.5t-65 -29.5h-62v36h50q21 0 30.5 13t9.5 53v197q0 90 72 107v2q-72 17 -72 107v197q0 40 -9.5 53t-30.5 13h-50v36h62q42 0 65 -29.5t23 -83.5v-195q0 -41 13.5 -61t46.5 -20z" />
    <glyph glyph-name="asciitilde" unicode="~" horiz-adv-x="600" 
d="M511 325l38 -42q-46 -84 -135 -84q-42 0 -119 32q-85 34 -111 34q-29 0 -50 -18t-45 -52l-38 42q48 84 135 84q42 0 119 -32q85 -34 111 -34q29 0 50 18t45 52z" />
    <glyph glyph-name="exclamdown" unicode="&#xa1;" horiz-adv-x="222" 
d="M154 -202h-86l18 500h50zM68 520h86v-90h-86v90z" />
    <glyph glyph-name="cent" unicode="&#xa2;" 
d="M199 67l133 407q-21 8 -44 8q-164 0 -164 -222q0 -138 75 -193zM376 446l-131 -402q19 -6 43 -6q52 0 86.5 26.5t69.5 81.5l48 -23q-79 -133 -204 -133q-33 0 -58 7l-38 -117h-54l44 135q-58 31 -88 95t-30 150q0 131 60.5 200.5t163.5 69.5q30 0 59 -8l35 107h54
l-42 -128q58 -37 84 -112l-55 -15q-20 45 -47 72z" />
    <glyph glyph-name="sterling" unicode="&#xa3;" 
d="M16 -10v62q60 27 87.5 85.5t27.5 131.5q0 13 -5 66h-111v48h105q-1 12 -7.5 65t-6.5 82q0 92 55 147t147 55q85 0 141.5 -49.5t71.5 -133.5l-58 -14q-14 70 -50.5 106.5t-105.5 36.5q-70 0 -105.5 -40.5t-35.5 -110.5q0 -50 16 -144h146v-48h-140q0 -8 1.5 -26t1.5 -27
q0 -89 -36 -168q108 -70 173 -70q62 0 96.5 29.5t54.5 105.5l56 -12q-35 -177 -197 -177q-45 0 -86 13t-61 24.5t-63 40.5q-49 -66 -112 -78z" />
    <glyph glyph-name="currency" unicode="&#xa4;" 
d="M488 609l38 -38l-54 -54q54 -63 54 -156t-54 -156l54 -54l-38 -38l-56 55q-65 -55 -154 -55t-154 55l-56 -55l-38 38l54 54q-54 63 -54 156t54 156l-54 54l38 38l56 -55q65 55 154 55t154 -55zM278 161q80 0 137 59.5t57 140.5t-57 140.5t-137 59.5t-137 -59.5
t-57 -140.5t57 -140.5t137 -59.5z" />
    <glyph glyph-name="yen" unicode="&#xa5;" 
d="M483 440v-48h-130l-46 -86v-12h176v-48h-176v-246h-66v246h-176v48h176v12l-44 86h-132v48h108l-145 282h66l178 -357l190 357h66l-150 -282h105z" />
    <glyph glyph-name="brokenbar" unicode="&#xa6;" horiz-adv-x="222" 
d="M84 -10v280h54v-280h-54zM84 452v280h54v-280h-54z" />
    <glyph glyph-name="section" unicode="&#xa7;" horiz-adv-x="500" 
d="M399 634l-40 -25q-39 79 -114 79q-35 0 -56 -20t-21 -60q0 -23 26.5 -54.5t64.5 -65l76 -68.5t64.5 -75t26.5 -75q0 -105 -109 -112q55 -64 55 -127q0 -55 -41 -83t-99 -28q-46 0 -87 25.5t-59 67.5l42 27q13 -33 41.5 -54.5t63.5 -21.5q89 0 89 74q0 25 -27 60t-65 72
l-76 75t-65 78.5t-27 72.5q0 47 33.5 74.5t83.5 27.5l2 2q-63 46 -63 116q0 51 37 83.5t95 32.5q102 0 149 -98zM178 466q-24 0 -45 -17t-21 -43q0 -40 81 -128t115 -88q31 0 49.5 19.5t18.5 50.5q0 23 -37 72.5t-85.5 91.5t-75.5 42z" />
    <glyph glyph-name="dieresis" unicode="&#xa8;" horiz-adv-x="222" 
d="M0 682h66v-94h-66v94zM156 682h66v-94h-66v94z" />
    <glyph glyph-name="copyright" unicode="&#xa9;" horiz-adv-x="800" 
d="M400 732q154 0 262.5 -109t108.5 -262t-108.5 -262t-262.5 -109t-262.5 109t-108.5 262t108.5 262t262.5 109zM400 40q133 0 222 93t89 228t-89 228t-222 93t-222 -93t-89 -228t89 -228t222 -93zM544 285h54q-17 -72 -67 -115.5t-120 -43.5q-101 0 -163 67t-62 169
q0 103 60 168.5t162 65.5q75 0 128 -41t62 -114h-54q-10 46 -46 75.5t-89 29.5q-76 0 -119.5 -52t-43.5 -131q0 -76 46 -131.5t119 -55.5q52 0 88 31t45 78z" />
    <glyph glyph-name="ordfeminine" unicode="&#xaa;" horiz-adv-x="300" 
d="M59 643l-32 20q42 69 130 69q57 0 83 -22.5t26 -73.5v-156q0 -32 6 -64h-44l-5 38q-51 -44 -117 -44q-41 0 -67.5 22t-26.5 59q0 30 14 52t40.5 35t48.5 20t56 14.5t45 10.5v25q0 44 -64 44q-57 0 -93 -49zM216 496v84q-8 -3 -32 -8.5t-42 -11t-38 -14.5t-31 -23t-11 -31
q0 -18 13.5 -30t36.5 -12q28 0 58 13t46 33z" />
    <glyph glyph-name="guillemotleft" unicode="&#xab;" horiz-adv-x="500" 
d="M418 414l-125 -152l125 -156h-66l-122 156l122 152h66zM269 414l-124 -152l124 -156h-66l-121 156l121 152h66z" />
    <glyph glyph-name="logicalnot" unicode="&#xac;" horiz-adv-x="600" 
d="M506 133v200h-466v54h520v-254h-54z" />
    <glyph glyph-name="registered" unicode="&#xae;" horiz-adv-x="800" 
d="M322 336v-196h-60v441h169q143 0 143 -122q0 -54 -29 -84t-73 -39l123 -196h-68l-120 196h-85zM322 386h69h6q23 0 35 0.5t30.5 4t27.5 11t16.5 22.5t7.5 36q0 71 -96 71h-96v-145zM400 732q154 0 262.5 -109t108.5 -262t-108.5 -262t-262.5 -109t-262.5 109t-108.5 262
t108.5 262t262.5 109zM400 40q133 0 222 93t89 228t-89 228t-222 93t-222 -93t-89 -228t89 -228t222 -93z" />
    <glyph glyph-name="macron" unicode="&#xaf;" horiz-adv-x="222" 
d="M-37 617v44h296v-44h-296z" />
    <glyph glyph-name="macron" unicode="&#x2c9;" horiz-adv-x="222" 
d="M-37 617v44h296v-44h-296z" />
    <glyph glyph-name="degree" unicode="&#xb0;" horiz-adv-x="400" 
d="M200 690q-44 0 -72 -29.5t-28 -74.5t28 -74.5t72 -29.5t72 29.5t28 74.5t-28 74.5t-72 29.5zM200 732q61 0 103.5 -42.5t42.5 -103.5t-42.5 -103.5t-103.5 -42.5t-103.5 42.5t-42.5 103.5t42.5 103.5t103.5 42.5z" />
    <glyph glyph-name="plusminus" unicode="&#xb1;" horiz-adv-x="600" 
d="M273 335v185h54v-185h233v-54h-233v-185h-54v185h-233v54h233zM40 0v54h520v-54h-520z" />
    <glyph glyph-name="twosuperior" unicode="&#xb2;" horiz-adv-x="333" 
d="M69 601l-46 7q11 58 52.5 91t103.5 33t99 -34.5t37 -95.5q0 -24 -7 -43t-24 -36.5t-30 -28t-39.5 -29l-38.5 -27.5q-85 -64 -98 -81q-9 -11 -10 -21h246v-44h-298v33q0 30 23 60t100 83q75 50 99.5 78t24.5 60q0 37 -22.5 59.5t-59.5 22.5q-92 0 -112 -87z" />
    <glyph glyph-name="threesuperior" unicode="&#xb3;" horiz-adv-x="333" 
d="M2 372l41 24q21 -38 47 -52t72 -14q52 0 79.5 22t27.5 61q0 87 -126 87h-43v44h35q119 0 119 78q0 30 -24.5 48t-60.5 18q-40 0 -62.5 -9.5t-45.5 -40.5l-36 23q51 71 140 71q57 0 99 -27.5t42 -78.5q0 -40 -13.5 -63t-52.5 -39q81 -28 81 -110q0 -65 -43.5 -96.5
t-117.5 -31.5q-118 0 -158 86z" />
    <glyph glyph-name="acute" unicode="&#xb4;" horiz-adv-x="222" 
d="M159 716h77l-137 -138h-51z" />
    <glyph glyph-name="mu" unicode="&#xb5;" 
d="M414 520h60v-520h-60v82q-46 -48 -85.5 -70t-92.5 -22q-60 0 -94 24v-198h-60v704h60v-349q0 -67 24 -100t82 -33q11 0 20 1t19.5 5t17 6t17.5 9.5l16.5 11t18 14.5l17 15l20 18t20.5 19v383z" />
    <glyph glyph-name="mu" unicode="&#x3bc;" 
d="M414 520h60v-520h-60v82q-46 -48 -85.5 -70t-92.5 -22q-60 0 -94 24v-198h-60v704h60v-349q0 -67 24 -100t82 -33q11 0 20 1t19.5 5t17 6t17.5 9.5l16.5 11t18 14.5l17 15l20 18t20.5 19v383z" />
    <glyph glyph-name="paragraph" unicode="&#xb6;" horiz-adv-x="500" 
d="M223 -80v416q-87 0 -147 56t-60 134q0 94 58.5 145t164.5 51h263v-44h-74v-758h-50v758h-105v-758h-50z" />
    <glyph glyph-name="periodcentered" unicode="&#xb7;" horiz-adv-x="278" 
d="M139 310q20 0 35 -14.5t15 -35.5t-15 -35.5t-35 -14.5t-35 14.5t-15 35.5t15 35.5t35 14.5z" />
    <glyph glyph-name="periodcentered" unicode="&#x2219;" horiz-adv-x="278" 
d="M139 310q20 0 35 -14.5t15 -35.5t-15 -35.5t-35 -14.5t-35 14.5t-15 35.5t15 35.5t35 14.5z" />
    <glyph glyph-name="cedilla" unicode="&#xb8;" horiz-adv-x="222" 
d="M0 -188l14 36q43 -16 59 -16q66 0 66 41q0 20 -13.5 30.5t-31.5 10.5q-24 0 -44 -9l-15 13l60 82h38l-43 -50l2 -2q12 6 31 6q36 0 57 -22.5t21 -61.5q0 -37 -33.5 -57.5t-71.5 -20.5q-57 0 -96 20z" />
    <glyph glyph-name="onesuperior" unicode="&#xb9;" horiz-adv-x="333" 
d="M275 292h-202v44h73v346l-82 -20v37l93 33h41v-396h77v-44z" />
    <glyph glyph-name="ordmasculine" unicode="&#xba;" horiz-adv-x="300" 
d="M66 571q0 -59 19 -87t65 -28t64.5 28t18.5 87q0 58 -19 86.5t-64 28.5q-46 0 -65 -28.5t-19 -86.5zM150 732q73 0 106 -45t33 -116t-33 -116t-106 -45q-74 0 -107 45t-33 116t33 116t107 45z" />
    <glyph glyph-name="guillemotright" unicode="&#xbb;" horiz-adv-x="500" 
d="M82 106l125 152l-125 156h66l122 -156l-122 -152h-66zM231 106l124 152l-124 156h66l121 -156l-121 -152h-66z" />
    <glyph glyph-name="onequarter" unicode="&#xbc;" horiz-adv-x="834" 
d="M669 374l-151 -226h155v226h-4zM462 104v48l196 282h67v-286h71v-44h-71v-104h-52v104h-211zM299 292h-202v44h73v346l-82 -20v37l93 33h41v-396h77v-44zM181 -10l444 742h57l-442 -742h-59z" />
    <glyph glyph-name="onehalf" unicode="&#xbd;" horiz-adv-x="834" 
d="M299 292h-202v44h73v346l-82 -20v37l93 33h41v-396h77v-44zM545 309l-46 7q11 58 52.5 91t103.5 33t99 -34.5t37 -95.5q0 -24 -7 -43t-24 -36.5t-30 -28t-39.5 -29l-38.5 -27.5q-85 -64 -98 -81q-9 -11 -10 -21h246v-44h-298v33q0 30 23 60t100 83q75 50 99.5 78t24.5 60
q0 37 -22.5 59.5t-59.5 22.5q-92 0 -112 -87zM169 -10l444 742h57l-442 -742h-59z" />
    <glyph glyph-name="threequarters" unicode="&#xbe;" horiz-adv-x="834" 
d="M669 374l-151 -226h155v226h-4zM462 104v48l196 282h67v-286h71v-44h-71v-104h-52v104h-211zM30 372l41 24q21 -38 47 -52t72 -14q52 0 79.5 22t27.5 61q0 87 -126 87h-43v44h35q119 0 119 78q0 30 -24.5 48t-60.5 18q-40 0 -62.5 -9.5t-45.5 -40.5l-36 23q51 71 140 71
q57 0 99 -27.5t42 -78.5q0 -40 -13.5 -63t-52.5 -39q81 -28 81 -110q0 -65 -43.5 -96.5t-117.5 -31.5q-118 0 -158 86zM197 -10l444 742h57l-442 -742h-59z" />
    <glyph glyph-name="questiondown" unicode="&#xbf;" horiz-adv-x="389" 
d="M310 -64l50 -25q-45 -123 -165 -123q-69 0 -117 43t-48 120q0 37 17.5 70t42.5 58.5l50 50.5t42.5 56.5t17.5 65.5v48h54v-72q0 -28 -16.5 -57t-39.5 -54.5l-46 -52t-39.5 -59.5t-16.5 -67q0 -45 28 -70.5t72 -25.5q77 0 114 94zM187 520h86v-90h-86v90z" />
    <glyph glyph-name="Agrave" unicode="&#xc0;" horiz-adv-x="611" 
d="M186 290h241l-120 378h-2zM25 0l231 722h101l228 -722h-70l-73 236h-273l-74 -236h-70zM178 891h77l111 -138h-51z" />
    <glyph glyph-name="Aacute" unicode="&#xc1;" horiz-adv-x="611" 
d="M186 290h241l-120 378h-2zM25 0l231 722h101l228 -722h-70l-73 236h-273l-74 -236h-70zM351 891h77l-137 -138h-51z" />
    <glyph glyph-name="Acircumflex" unicode="&#xc2;" horiz-adv-x="611" 
d="M186 290h241l-120 378h-2zM25 0l231 722h101l228 -722h-70l-73 236h-273l-74 -236h-70zM337 891l114 -138h-66l-82 101l-82 -101h-66l114 138h68z" />
    <glyph glyph-name="Atilde" unicode="&#xc3;" horiz-adv-x="611" 
d="M186 290h241l-120 378h-2zM25 0l231 722h101l228 -722h-70l-73 236h-273l-74 -236h-70zM184 764h-38q3 37 27.5 67t60.5 30q26 0 74 -22q50 -22 69 -22t30.5 14.5t14.5 34.5h38q-17 -97 -89 -97q-20 0 -72 23q-50 22 -68 22q-39 0 -47 -50z" />
    <glyph glyph-name="Adieresis" unicode="&#xc4;" horiz-adv-x="611" 
d="M186 290h241l-120 378h-2zM25 0l231 722h101l228 -722h-70l-73 236h-273l-74 -236h-70zM192 857h66v-94h-66v94zM348 857h66v-94h-66v94z" />
    <glyph glyph-name="Aring" unicode="&#xc5;" horiz-adv-x="611" 
d="M186 290h241l-120 378h-2zM25 0l231 722h101l228 -722h-70l-73 236h-273l-74 -236h-70zM303 949q41 0 70.5 -29t29.5 -71t-29.5 -71t-70.5 -29t-70.5 29t-29.5 71t29.5 71t70.5 29zM303 915q-27 0 -46.5 -19t-19.5 -47t19.5 -47t46.5 -19t46.5 19t19.5 47t-19.5 47
t-46.5 19z" />
    <glyph glyph-name="AE" unicode="&#xc6;" horiz-adv-x="944" 
d="M250 290h229v376h-17zM18 0l402 722h465v-54h-340v-266h243v-54h-243v-294h359v-54h-425v236h-261l-126 -236h-74z" />
    <glyph glyph-name="Ccedilla" unicode="&#xc7;" horiz-adv-x="611" 
d="M557 523l-61 -13q-49 168 -176 168q-102 0 -154 -88t-52 -229q0 -142 53 -229.5t160 -87.5q80 0 120.5 47t61.5 129l62 -11q-22 -104 -80 -161.5t-165 -57.5q-130 0 -204 101t-74 270t74 270t204 101q92 0 149 -57t82 -152zM202 -188l14 36q43 -16 59 -16q66 0 66 41
q0 20 -13.5 30.5t-31.5 10.5q-24 0 -44 -9l-15 13l60 82h38l-43 -50l2 -2q12 6 31 6q36 0 57 -22.5t21 -61.5q0 -37 -33.5 -57.5t-71.5 -20.5q-57 0 -96 20z" />
    <glyph glyph-name="Egrave" unicode="&#xc8;" 
d="M531 0h-431v722h412v-54h-346v-266h249v-54h-249v-294h365v-54zM183 891h77l111 -138h-51z" />
    <glyph glyph-name="Eacute" unicode="&#xc9;" 
d="M531 0h-431v722h412v-54h-346v-266h249v-54h-249v-294h365v-54zM356 891h77l-137 -138h-51z" />
    <glyph glyph-name="Ecircumflex" unicode="&#xca;" 
d="M531 0h-431v722h412v-54h-346v-266h249v-54h-249v-294h365v-54zM342 891l114 -138h-66l-82 101l-82 -101h-66l114 138h68z" />
    <glyph glyph-name="Edieresis" unicode="&#xcb;" 
d="M531 0h-431v722h412v-54h-346v-266h249v-54h-249v-294h365v-54zM197 857h66v-94h-66v94zM353 857h66v-94h-66v94z" />
    <glyph glyph-name="Igrave" unicode="&#xcc;" horiz-adv-x="278" 
d="M106 0v722h66v-722h-66zM7 891h77l111 -138h-51z" />
    <glyph glyph-name="Iacute" unicode="&#xcd;" horiz-adv-x="278" 
d="M106 0v722h66v-722h-66zM180 891h77l-137 -138h-51z" />
    <glyph glyph-name="Icircumflex" unicode="&#xce;" horiz-adv-x="278" 
d="M106 0v722h66v-722h-66zM166 891l114 -138h-66l-82 101l-82 -101h-66l114 138h68z" />
    <glyph glyph-name="Idieresis" unicode="&#xcf;" horiz-adv-x="278" 
d="M106 0v722h66v-722h-66zM21 857h66v-94h-66v94zM177 857h66v-94h-66v94z" />
    <glyph glyph-name="Eth" unicode="&#xd0;" horiz-adv-x="667" 
d="M166 402h196v-54h-196v-294h140q119 0 182.5 80t63.5 227t-63.5 227t-182.5 80h-140v-266zM10 402h90v320h204q158 0 236 -102t78 -259t-78 -259t-236 -102h-204v348h-90v54z" />
    <glyph glyph-name="Ntilde" unicode="&#xd1;" horiz-adv-x="722" 
d="M100 0v722h111l343 -602h2v602h66v-722h-68l-386 668h-2v-668h-66zM242 764h-38q3 37 27.5 67t60.5 30q26 0 74 -22q50 -22 69 -22t30.5 14.5t14.5 34.5h38q-17 -97 -89 -97q-20 0 -72 23q-50 22 -68 22q-39 0 -47 -50z" />
    <glyph glyph-name="Ograve" unicode="&#xd2;" horiz-adv-x="667" 
d="M333 732q133 0 209 -103.5t76 -267.5t-76 -267.5t-209 -103.5t-209 103.5t-76 267.5t76 267.5t209 103.5zM333 44q101 0 160 83.5t59 233.5t-59 233.5t-160 83.5t-160 -83.5t-59 -233.5t59 -233.5t160 -83.5zM209 891h77l111 -138h-51z" />
    <glyph glyph-name="Oacute" unicode="&#xd3;" horiz-adv-x="667" 
d="M333 732q133 0 209 -103.5t76 -267.5t-76 -267.5t-209 -103.5t-209 103.5t-76 267.5t76 267.5t209 103.5zM333 44q101 0 160 83.5t59 233.5t-59 233.5t-160 83.5t-160 -83.5t-59 -233.5t59 -233.5t160 -83.5zM382 891h77l-137 -138h-51z" />
    <glyph glyph-name="Ocircumflex" unicode="&#xd4;" horiz-adv-x="667" 
d="M333 732q133 0 209 -103.5t76 -267.5t-76 -267.5t-209 -103.5t-209 103.5t-76 267.5t76 267.5t209 103.5zM333 44q101 0 160 83.5t59 233.5t-59 233.5t-160 83.5t-160 -83.5t-59 -233.5t59 -233.5t160 -83.5zM368 891l114 -138h-66l-82 101l-82 -101h-66l114 138h68z" />
    <glyph glyph-name="Otilde" unicode="&#xd5;" horiz-adv-x="667" 
d="M333 732q133 0 209 -103.5t76 -267.5t-76 -267.5t-209 -103.5t-209 103.5t-76 267.5t76 267.5t209 103.5zM333 44q101 0 160 83.5t59 233.5t-59 233.5t-160 83.5t-160 -83.5t-59 -233.5t59 -233.5t160 -83.5zM215 764h-38q3 37 27.5 67t60.5 30q26 0 74 -22
q50 -22 69 -22t30.5 14.5t14.5 34.5h38q-17 -97 -89 -97q-20 0 -72 23q-50 22 -68 22q-39 0 -47 -50z" />
    <glyph glyph-name="Odieresis" unicode="&#xd6;" horiz-adv-x="667" 
d="M333 732q133 0 209 -103.5t76 -267.5t-76 -267.5t-209 -103.5t-209 103.5t-76 267.5t76 267.5t209 103.5zM333 44q101 0 160 83.5t59 233.5t-59 233.5t-160 83.5t-160 -83.5t-59 -233.5t59 -233.5t160 -83.5zM223 857h66v-94h-66v94zM379 857h66v-94h-66v94z" />
    <glyph glyph-name="multiply" unicode="&#xd7;" horiz-adv-x="600" 
d="M560 482l-222 -222l222 -222l-38 -38l-222 222l-222 -222l-38 38l222 222l-222 222l38 38l222 -222l222 222z" />
    <glyph glyph-name="Oslash" unicode="&#xd8;" horiz-adv-x="667" 
d="M503 577l-305 -478q52 -55 135 -55q101 0 160 83.5t59 233.5q0 138 -49 216zM163 144l306 478q-53 56 -136 56q-101 0 -160 -83.5t-59 -233.5q0 -136 49 -217zM626 770l-88 -137q80 -100 80 -272q0 -164 -76 -267.5t-209 -103.5q-97 0 -167 59l-62 -97h-63l87 137
q-80 101 -80 272q0 164 76 267.5t209 103.5q99 0 168 -60l62 98h63z" />
    <glyph glyph-name="Ugrave" unicode="&#xd9;" horiz-adv-x="722" 
d="M100 722h66v-492q0 -101 48 -143.5t147 -42.5t147 42.5t48 143.5v492h66v-486q0 -246 -261 -246t-261 246v486zM231 891h77l111 -138h-51z" />
    <glyph glyph-name="Uacute" unicode="&#xda;" horiz-adv-x="722" 
d="M100 722h66v-492q0 -101 48 -143.5t147 -42.5t147 42.5t48 143.5v492h66v-486q0 -246 -261 -246t-261 246v486zM404 891h77l-137 -138h-51z" />
    <glyph glyph-name="Ucircumflex" unicode="&#xdb;" horiz-adv-x="722" 
d="M100 722h66v-492q0 -101 48 -143.5t147 -42.5t147 42.5t48 143.5v492h66v-486q0 -246 -261 -246t-261 246v486zM390 891l114 -138h-66l-82 101l-82 -101h-66l114 138h68z" />
    <glyph glyph-name="Udieresis" unicode="&#xdc;" horiz-adv-x="722" 
d="M100 722h66v-492q0 -101 48 -143.5t147 -42.5t147 42.5t48 143.5v492h66v-486q0 -246 -261 -246t-261 246v486zM245 857h66v-94h-66v94zM401 857h66v-94h-66v94z" />
    <glyph glyph-name="Yacute" unicode="&#xdd;" 
d="M241 0v306l-221 416h74l178 -357l190 357h74l-229 -416v-306h-66zM326 891h77l-137 -138h-51z" />
    <glyph glyph-name="Thorn" unicode="&#xde;" horiz-adv-x="611" 
d="M166 170v-170h-66v722h66v-150h152q125 0 184.5 -53t59.5 -148t-59.5 -148t-184.5 -53h-152zM166 518v-294h152q178 0 178 147t-178 147h-152z" />
    <glyph glyph-name="germandbls" unicode="&#xdf;" horiz-adv-x="500" 
d="M136 0h-60v533q0 87 45 138t131 51q76 0 124 -50.5t48 -127.5q0 -50 -23.5 -89t-68.5 -61q67 -21 102 -71.5t35 -121.5q0 -98 -44.5 -154.5t-126.5 -56.5q-53 0 -92 23l21 45q38 -20 74 -20q51 0 79.5 41.5t28.5 114.5q0 88 -45 127t-137 39v48q68 2 102.5 34.5
t34.5 103.5q0 61 -30.5 94.5t-90.5 33.5q-58 0 -82.5 -39.5t-24.5 -98.5v-536z" />
    <glyph glyph-name="agrave" unicode="&#xe0;" horiz-adv-x="500" 
d="M424 0h-58l-8 63q-50 -39 -91 -56t-98 -17q-62 0 -102.5 36.5t-40.5 99.5q0 24 5 43.5t11.5 35.5t22.5 30t28 23.5t38.5 20.5t44 17.5t54.5 15.5l59.5 14.5t69.5 15.5v36q0 54 -27 79t-92 25q-91 0 -151 -94l-40 24q63 118 193 118q89 0 131.5 -39t42.5 -124v-272
q0 -48 8 -95zM356 124v170q-87 -19 -142.5 -38t-82.5 -40.5t-36 -41t-9 -47.5q0 -42 25.5 -65.5t67.5 -23.5t90 23t87 63zM125 716h77l111 -138h-51z" />
    <glyph glyph-name="aacute" unicode="&#xe1;" horiz-adv-x="500" 
d="M424 0h-58l-8 63q-50 -39 -91 -56t-98 -17q-62 0 -102.5 36.5t-40.5 99.5q0 24 5 43.5t11.5 35.5t22.5 30t28 23.5t38.5 20.5t44 17.5t54.5 15.5l59.5 14.5t69.5 15.5v36q0 54 -27 79t-92 25q-91 0 -151 -94l-40 24q63 118 193 118q89 0 131.5 -39t42.5 -124v-272
q0 -48 8 -95zM356 124v170q-87 -19 -142.5 -38t-82.5 -40.5t-36 -41t-9 -47.5q0 -42 25.5 -65.5t67.5 -23.5t90 23t87 63zM298 716h77l-137 -138h-51z" />
    <glyph glyph-name="acircumflex" unicode="&#xe2;" horiz-adv-x="500" 
d="M424 0h-58l-8 63q-50 -39 -91 -56t-98 -17q-62 0 -102.5 36.5t-40.5 99.5q0 24 5 43.5t11.5 35.5t22.5 30t28 23.5t38.5 20.5t44 17.5t54.5 15.5l59.5 14.5t69.5 15.5v36q0 54 -27 79t-92 25q-91 0 -151 -94l-40 24q63 118 193 118q89 0 131.5 -39t42.5 -124v-272
q0 -48 8 -95zM356 124v170q-87 -19 -142.5 -38t-82.5 -40.5t-36 -41t-9 -47.5q0 -42 25.5 -65.5t67.5 -23.5t90 23t87 63zM284 716l114 -138h-66l-82 101l-82 -101h-66l114 138h68z" />
    <glyph glyph-name="atilde" unicode="&#xe3;" horiz-adv-x="500" 
d="M424 0h-58l-8 63q-50 -39 -91 -56t-98 -17q-62 0 -102.5 36.5t-40.5 99.5q0 24 5 43.5t11.5 35.5t22.5 30t28 23.5t38.5 20.5t44 17.5t54.5 15.5l59.5 14.5t69.5 15.5v36q0 54 -27 79t-92 25q-91 0 -151 -94l-40 24q63 118 193 118q89 0 131.5 -39t42.5 -124v-272
q0 -48 8 -95zM356 124v170q-87 -19 -142.5 -38t-82.5 -40.5t-36 -41t-9 -47.5q0 -42 25.5 -65.5t67.5 -23.5t90 23t87 63zM131 589h-38q3 37 27.5 67t60.5 30q26 0 74 -22q50 -22 69 -22t30.5 14.5t14.5 34.5h38q-17 -97 -89 -97q-20 0 -72 23q-50 22 -68 22q-39 0 -47 -50z
" />
    <glyph glyph-name="adieresis" unicode="&#xe4;" horiz-adv-x="500" 
d="M424 0h-58l-8 63q-50 -39 -91 -56t-98 -17q-62 0 -102.5 36.5t-40.5 99.5q0 24 5 43.5t11.5 35.5t22.5 30t28 23.5t38.5 20.5t44 17.5t54.5 15.5l59.5 14.5t69.5 15.5v36q0 54 -27 79t-92 25q-91 0 -151 -94l-40 24q63 118 193 118q89 0 131.5 -39t42.5 -124v-272
q0 -48 8 -95zM356 124v170q-87 -19 -142.5 -38t-82.5 -40.5t-36 -41t-9 -47.5q0 -42 25.5 -65.5t67.5 -23.5t90 23t87 63zM139 682h66v-94h-66v94zM295 682h66v-94h-66v94z" />
    <glyph glyph-name="aring" unicode="&#xe5;" horiz-adv-x="500" 
d="M424 0h-58l-8 63q-50 -39 -91 -56t-98 -17q-62 0 -102.5 36.5t-40.5 99.5q0 24 5 43.5t11.5 35.5t22.5 30t28 23.5t38.5 20.5t44 17.5t54.5 15.5l59.5 14.5t69.5 15.5v36q0 54 -27 79t-92 25q-91 0 -151 -94l-40 24q63 118 193 118q89 0 131.5 -39t42.5 -124v-272
q0 -48 8 -95zM356 124v170q-87 -19 -142.5 -38t-82.5 -40.5t-36 -41t-9 -47.5q0 -42 25.5 -65.5t67.5 -23.5t90 23t87 63zM250 774q41 0 70.5 -29t29.5 -71t-29.5 -71t-70.5 -29t-70.5 29t-29.5 71t29.5 71t70.5 29zM250 740q-27 0 -46.5 -19t-19.5 -47t19.5 -47t46.5 -19
t46.5 19t19.5 47t-19.5 47t-46.5 19z" />
    <glyph glyph-name="ae" unicode="&#xe6;" horiz-adv-x="778" 
d="M338 124v170q-80 -19 -131.5 -38t-77 -40.5t-34.5 -41.5t-9 -47q0 -42 25.5 -65.5t67.5 -23.5q43 0 88.5 23.5t70.5 62.5zM736 258h-338q0 -97 34.5 -158.5t108.5 -61.5q50 0 81.5 21.5t70.5 83.5l49 -26q-43 -70 -88 -98.5t-118 -28.5q-101 0 -166 88q-71 -88 -201 -88
q-62 0 -102.5 36.5t-40.5 99.5q0 41 13.5 71.5t37.5 51t63 36.5t83.5 28l104.5 27q7 1 10 2v36q0 44 -27 74t-83 30q-100 0 -137 -96l-44 26q49 118 177 118q118 0 158 -85q59 85 158 85q101 0 148.5 -72.5t47.5 -199.5zM398 306h278q-20 176 -138 176q-64 0 -99.5 -49
t-40.5 -127z" />
    <glyph glyph-name="ccedilla" unicode="&#xe7;" horiz-adv-x="500" 
d="M450 389l-55 -15q-49 108 -135 108q-164 0 -164 -222q0 -101 43.5 -161.5t120.5 -60.5q52 0 86.5 26.5t69.5 81.5l48 -23q-79 -133 -204 -133q-107 0 -165.5 74.5t-58.5 195.5q0 131 60.5 200.5t163.5 69.5q139 0 190 -141zM139 -188l14 36q43 -16 59 -16q66 0 66 41
q0 20 -13.5 30.5t-31.5 10.5q-24 0 -44 -9l-15 13l60 82h38l-43 -50l2 -2q12 6 31 6q36 0 57 -22.5t21 -61.5q0 -37 -33.5 -57.5t-71.5 -20.5q-57 0 -96 20z" />
    <glyph glyph-name="egrave" unicode="&#xe8;" horiz-adv-x="500" 
d="M458 258h-362q0 -96 41.5 -158t125.5 -62q50 0 81.5 21.5t70.5 83.5l49 -26q-43 -70 -88 -98.5t-118 -28.5q-105 0 -163.5 68t-58.5 202q0 122 58 196t156 74q103 0 155.5 -73.5t52.5 -198.5zM96 306h302q-20 175 -150 176q-38 0 -68 -17.5t-47.5 -44.5t-27 -56.5
t-9.5 -57.5zM125 716h77l111 -138h-51z" />
    <glyph glyph-name="eacute" unicode="&#xe9;" horiz-adv-x="500" 
d="M458 258h-362q0 -96 41.5 -158t125.5 -62q50 0 81.5 21.5t70.5 83.5l49 -26q-43 -70 -88 -98.5t-118 -28.5q-105 0 -163.5 68t-58.5 202q0 122 58 196t156 74q103 0 155.5 -73.5t52.5 -198.5zM96 306h302q-20 175 -150 176q-38 0 -68 -17.5t-47.5 -44.5t-27 -56.5
t-9.5 -57.5zM298 716h77l-137 -138h-51z" />
    <glyph glyph-name="ecircumflex" unicode="&#xea;" horiz-adv-x="500" 
d="M458 258h-362q0 -96 41.5 -158t125.5 -62q50 0 81.5 21.5t70.5 83.5l49 -26q-43 -70 -88 -98.5t-118 -28.5q-105 0 -163.5 68t-58.5 202q0 122 58 196t156 74q103 0 155.5 -73.5t52.5 -198.5zM96 306h302q-20 175 -150 176q-38 0 -68 -17.5t-47.5 -44.5t-27 -56.5
t-9.5 -57.5zM284 716l114 -138h-66l-82 101l-82 -101h-66l114 138h68z" />
    <glyph glyph-name="edieresis" unicode="&#xeb;" horiz-adv-x="500" 
d="M458 258h-362q0 -96 41.5 -158t125.5 -62q50 0 81.5 21.5t70.5 83.5l49 -26q-43 -70 -88 -98.5t-118 -28.5q-105 0 -163.5 68t-58.5 202q0 122 58 196t156 74q103 0 155.5 -73.5t52.5 -198.5zM96 306h302q-20 175 -150 176q-38 0 -68 -17.5t-47.5 -44.5t-27 -56.5
t-9.5 -57.5zM139 682h66v-94h-66v94zM295 682h66v-94h-66v94z" />
    <glyph glyph-name="igrave" unicode="&#xec;" horiz-adv-x="222" 
d="M141 520v-520h-60v520h60zM-14 716h77l111 -138h-51z" />
    <glyph glyph-name="iacute" unicode="&#xed;" horiz-adv-x="222" 
d="M141 520v-520h-60v520h60zM159 716h77l-137 -138h-51z" />
    <glyph glyph-name="icircumflex" unicode="&#xee;" horiz-adv-x="222" 
d="M141 520v-520h-60v520h60zM145 716l114 -138h-66l-82 101l-82 -101h-66l114 138h68z" />
    <glyph glyph-name="idieresis" unicode="&#xef;" horiz-adv-x="222" 
d="M141 520v-520h-60v520h60zM0 682h66v-94h-66v94zM156 682h66v-94h-66v94z" />
    <glyph glyph-name="eth" unicode="&#xf0;" horiz-adv-x="500" 
d="M250 482q-154 0 -154 -222t154 -222t154 222t-154 222zM174 696l53 26q41 -27 70 -53l102 53l28 -40l-93 -49q130 -140 130 -373q0 -118 -50.5 -194t-163.5 -76t-163.5 76t-50.5 194t50.5 194t163.5 76q58 0 99 -22l2 2q-28 52 -68 97l-102 -53l-28 40l93 49
q-33 30 -72 53z" />
    <glyph glyph-name="ntilde" unicode="&#xf1;" 
d="M142 0h-60v520h60v-82q46 48 85.5 70t92.5 22q154 0 154 -175v-355h-60v349q0 67 -24 100t-82 33q-11 0 -20 -1t-19.5 -5t-17 -6t-17.5 -9.5l-16.5 -11t-18 -14.5l-17 -15l-20 -18t-20.5 -19v-383zM152 589h-38q3 37 27.5 67t60.5 30q26 0 74 -22q50 -22 69 -22
t30.5 14.5t14.5 34.5h38q-17 -97 -89 -97q-20 0 -72 23q-50 22 -68 22q-39 0 -47 -50z" />
    <glyph glyph-name="ograve" unicode="&#xf2;" horiz-adv-x="500" 
d="M250 482q-154 0 -154 -222t154 -222t154 222t-154 222zM250 530q113 0 163.5 -76t50.5 -194t-50.5 -194t-163.5 -76t-163.5 76t-50.5 194t50.5 194t163.5 76zM120 716h77l111 -138h-51z" />
    <glyph glyph-name="oacute" unicode="&#xf3;" horiz-adv-x="500" 
d="M250 482q-154 0 -154 -222t154 -222t154 222t-154 222zM250 530q113 0 163.5 -76t50.5 -194t-50.5 -194t-163.5 -76t-163.5 76t-50.5 194t50.5 194t163.5 76zM293 716h77l-137 -138h-51z" />
    <glyph glyph-name="ocircumflex" unicode="&#xf4;" horiz-adv-x="500" 
d="M250 482q-154 0 -154 -222t154 -222t154 222t-154 222zM250 530q113 0 163.5 -76t50.5 -194t-50.5 -194t-163.5 -76t-163.5 76t-50.5 194t50.5 194t163.5 76zM279 716l114 -138h-66l-82 101l-82 -101h-66l114 138h68z" />
    <glyph glyph-name="otilde" unicode="&#xf5;" horiz-adv-x="500" 
d="M250 482q-154 0 -154 -222t154 -222t154 222t-154 222zM250 530q113 0 163.5 -76t50.5 -194t-50.5 -194t-163.5 -76t-163.5 76t-50.5 194t50.5 194t163.5 76zM126 589h-38q3 37 27.5 67t60.5 30q26 0 74 -22q50 -22 69 -22t30.5 14.5t14.5 34.5h38q-17 -97 -89 -97
q-20 0 -72 23q-50 22 -68 22q-39 0 -47 -50z" />
    <glyph glyph-name="odieresis" unicode="&#xf6;" horiz-adv-x="500" 
d="M250 482q-154 0 -154 -222t154 -222t154 222t-154 222zM250 530q113 0 163.5 -76t50.5 -194t-50.5 -194t-163.5 -76t-163.5 76t-50.5 194t50.5 194t163.5 76zM134 682h66v-94h-66v94zM290 682h66v-94h-66v94z" />
    <glyph glyph-name="divide" unicode="&#xf7;" horiz-adv-x="600" 
d="M560 233h-520v54h520v-54zM300 534q23 0 40 -17t17 -40t-17 -40t-40 -17t-40 17t-17 40t17 40t40 17zM300 100q23 0 40 -17t17 -40t-17 -40t-40 -17t-40 17t-17 40t17 40t40 17z" />
    <glyph glyph-name="oslash" unicode="&#xf8;" horiz-adv-x="500" 
d="M128 106l213 346q-36 30 -91 30q-154 0 -154 -222q0 -100 32 -154zM373 413l-213 -346q35 -29 90 -29q154 0 154 222q0 101 -31 153zM488 600l-83 -135q59 -69 59 -205q0 -118 -50.5 -194t-163.5 -76q-71 0 -117 33l-63 -103h-56l82 134q-60 70 -60 206q0 118 50.5 194
t163.5 76q71 0 118 -33l63 103h57z" />
    <glyph glyph-name="ugrave" unicode="&#xf9;" 
d="M414 520h60v-520h-60v82q-46 -48 -85.5 -70t-92.5 -22q-154 0 -154 175v355h60v-349q0 -67 24 -100t82 -33q11 0 20 1t19.5 5t17 6t17.5 9.5l16.5 11t18 14.5l17 15l20 18t20.5 19v383zM153 716h77l111 -138h-51z" />
    <glyph glyph-name="uacute" unicode="&#xfa;" 
d="M414 520h60v-520h-60v82q-46 -48 -85.5 -70t-92.5 -22q-154 0 -154 175v355h60v-349q0 -67 24 -100t82 -33q11 0 20 1t19.5 5t17 6t17.5 9.5l16.5 11t18 14.5l17 15l20 18t20.5 19v383zM326 716h77l-137 -138h-51z" />
    <glyph glyph-name="ucircumflex" unicode="&#xfb;" 
d="M414 520h60v-520h-60v82q-46 -48 -85.5 -70t-92.5 -22q-154 0 -154 175v355h60v-349q0 -67 24 -100t82 -33q11 0 20 1t19.5 5t17 6t17.5 9.5l16.5 11t18 14.5l17 15l20 18t20.5 19v383zM312 716l114 -138h-66l-82 101l-82 -101h-66l114 138h68z" />
    <glyph glyph-name="udieresis" unicode="&#xfc;" 
d="M414 520h60v-520h-60v82q-46 -48 -85.5 -70t-92.5 -22q-154 0 -154 175v355h60v-349q0 -67 24 -100t82 -33q11 0 20 1t19.5 5t17 6t17.5 9.5l16.5 11t18 14.5l17 15l20 18t20.5 19v383zM167 682h66v-94h-66v94zM323 682h66v-94h-66v94z" />
    <glyph glyph-name="yacute" unicode="&#xfd;" horiz-adv-x="444" 
d="M78 520l143 -423h2l145 423h64l-194 -557q-28 -80 -63 -113.5t-103 -33.5q-35 0 -56 6v49q1 0 23.5 -3.5t36.5 -3.5q35 0 66 34.5t51 109.5l-181 512h66zM270 716h77l-137 -138h-51z" />
    <glyph glyph-name="thorn" unicode="&#xfe;" 
d="M92 -184v906h60v-282h2q61 90 157 90q97 0 153 -80t56 -193q0 -132 -55.5 -199.5t-149.5 -67.5q-51 0 -87 18t-76 60v-252h-60zM152 387v-256q17 -31 61.5 -62t85.5 -31q80 0 120.5 60t40.5 170q0 88 -39.5 151t-112.5 63q-31 0 -60 -14.5t-46.5 -30.5t-49.5 -50z" />
    <glyph glyph-name="ydieresis" unicode="&#xff;" horiz-adv-x="444" 
d="M78 520l143 -423h2l145 423h64l-194 -557q-28 -80 -63 -113.5t-103 -33.5q-35 0 -56 6v49q1 0 23.5 -3.5t36.5 -3.5q35 0 66 34.5t51 109.5l-181 512h66zM111 682h66v-94h-66v94zM267 682h66v-94h-66v94z" />
    <glyph glyph-name="dotlessi" unicode="&#x131;" horiz-adv-x="222" 
d="M141 520v-520h-60v520h60z" />
    <glyph glyph-name="Lslash" unicode="&#x141;" horiz-adv-x="500" 
d="M336 419l-170 -68v-297h322v-54h-388v324l-84 -34v62l84 34v336h66v-309l170 68v-62z" />
    <glyph glyph-name="lslash" unicode="&#x142;" horiz-adv-x="222" 
d="M141 365v-365h-60v334l-80 -42v64l80 42v324h60v-293l80 41v-64z" />
    <glyph glyph-name="OE" unicode="&#x152;" horiz-adv-x="1000" 
d="M960 0h-404q-35 0 -99 -5t-87 -5q-166 0 -244 99t-78 272q0 160 84.5 265.5t237.5 105.5q30 0 96 -5t86 -5h389v-54h-341v-266h244v-54h-244v-294h360v-54zM534 144v434q0 100 -142 100q-137 0 -207.5 -85t-70.5 -232q0 -156 67 -236.5t211 -80.5q142 0 142 100z" />
    <glyph glyph-name="oe" unicode="&#x153;" horiz-adv-x="833" 
d="M96 260q0 -222 150 -222q72 0 108 57.5t36 164.5t-36 164.5t-108 57.5q-150 0 -150 -222zM791 258h-341q0 -98 34.5 -159t111.5 -61q50 0 81.5 21.5t70.5 83.5l49 -26q-43 -70 -88 -98.5t-118 -28.5q-120 0 -175 114q-50 -114 -170 -114q-110 0 -160 76t-50 194t50 194
t160 76q124 0 172 -113q19 47 62 80t110 33q100 0 150.5 -73t50.5 -199zM450 306h281q-20 176 -142 176q-128 0 -139 -176z" />
    <glyph glyph-name="Scaron" unicode="&#x160;" 
d="M32 183l61 19q21 -82 70.5 -120t135.5 -38q67 0 105.5 39t38.5 105q0 53 -40.5 87.5t-97.5 54t-114.5 41.5t-98 65t-40.5 109q0 83 55 135t153 52q86 0 146 -45t85 -128l-57 -17q-44 136 -174 136q-64 0 -103 -35t-39 -98q0 -42 27.5 -70.5t119.5 -63.5
q102 -38 154 -71.5t71 -68.5t19 -90q0 -89 -64 -140t-156 -51q-103 0 -165 47t-92 146zM244 753l-114 138h66l82 -101l82 101h66l-114 -138h-68z" />
    <glyph glyph-name="scaron" unicode="&#x161;" horiz-adv-x="444" 
d="M25 95l44 31q35 -51 71.5 -69.5t89.5 -18.5q49 0 82.5 28.5t33.5 70.5q0 35 -22.5 58t-56.5 33l-74 22t-74 24.5t-56.5 41.5t-22.5 72q0 70 47 106t118 36q121 0 179 -94l-46 -32q-57 78 -135 78q-46 0 -74.5 -23t-28.5 -68q0 -35 31.5 -55t76.5 -31.5t90 -26.5t76.5 -50
t31.5 -91q0 -67 -53 -107t-127 -40q-131 0 -201 105zM188 578l-114 138h66l82 -101l82 101h66l-114 -138h-68z" />
    <glyph glyph-name="Ydieresis" unicode="&#x178;" 
d="M241 0v306l-221 416h74l178 -357l190 357h74l-229 -416v-306h-66zM167 857h66v-94h-66v94zM323 857h66v-94h-66v94z" />
    <glyph glyph-name="Zcaron" unicode="&#x17d;" 
d="M77 668v54h428v-56l-377 -612h382v-54h-464v54l377 614h-346zM244 753l-114 138h66l82 -101l82 101h66l-114 -138h-68z" />
    <glyph glyph-name="zcaron" unicode="&#x17e;" horiz-adv-x="444" 
d="M49 472v48h356v-38l-300 -434h308v-48h-388v38l300 434h-276zM188 578l-114 138h66l82 -101l82 101h66l-114 -138h-68z" />
    <glyph glyph-name="florin" unicode="&#x192;" 
d="M499 726l-9 -45q-16 3 -32 3q-29 0 -51 -12t-34.5 -28.5t-21.5 -46.5t-12.5 -51t-8.5 -58t-8 -53h127v-48h-132l-59 -398q-11 -77 -53.5 -125t-116.5 -48q-20 0 -39 3l7 54q25 -9 35 -9q54 0 78.5 42.5t37.5 132.5l51 348h-134v48h139q4 38 7.5 60t11.5 63t20 66.5
t30.5 53t45.5 41t62 13.5q36 0 59 -6z" />
    <glyph glyph-name="circumflex" unicode="&#x2c6;" horiz-adv-x="222" 
d="M145 716l114 -138h-66l-82 101l-82 -101h-66l114 138h68z" />
    <glyph glyph-name="caron" unicode="&#x2c7;" horiz-adv-x="222" 
d="M77 578l-114 138h66l82 -101l82 101h66l-114 -138h-68z" />
    <glyph glyph-name="breve" unicode="&#x2d8;" horiz-adv-x="222" 
d="M111 628q90 0 106 81h38q-4 -59 -42.5 -93t-101.5 -34t-101.5 34t-42.5 93h38q16 -81 106 -81z" />
    <glyph glyph-name="dotaccent" unicode="&#x2d9;" horiz-adv-x="222" 
d="M78 682h66v-94h-66v94z" />
    <glyph glyph-name="ring" unicode="&#x2da;" horiz-adv-x="222" 
d="M111 774q41 0 70.5 -29t29.5 -71t-29.5 -71t-70.5 -29t-70.5 29t-29.5 71t29.5 71t70.5 29zM111 740q-27 0 -46.5 -19t-19.5 -47t19.5 -47t46.5 -19t46.5 19t19.5 47t-19.5 47t-46.5 19z" />
    <glyph glyph-name="ogonek" unicode="&#x2db;" horiz-adv-x="222" 
d="M215 19v-9q-27 -10 -38.5 -15t-38 -18.5t-39 -25t-24 -30.5t-11.5 -40q0 -17 17.5 -32t39.5 -15q27 0 103 42l14 -30q-82 -52 -142 -52q-41 0 -67.5 19.5t-26.5 60.5q0 20 9 38.5t19.5 30.5t33.5 24.5t35.5 18.5t42 14.5t37.5 10.5t36 8z" />
    <glyph glyph-name="tilde" unicode="&#x2dc;" horiz-adv-x="222" 
d="M-8 589h-38q3 37 27.5 67t60.5 30q26 0 74 -22q50 -22 69 -22t30.5 14.5t14.5 34.5h38q-17 -97 -89 -97q-20 0 -72 23q-50 22 -68 22q-39 0 -47 -50z" />
    <glyph glyph-name="hungarumlaut" unicode="&#x2dd;" horiz-adv-x="222" 
d="M85 716h77l-121 -138h-49zM224 716h77l-137 -138h-51z" />
    <glyph glyph-name="endash" unicode="&#x2013;" horiz-adv-x="500" 
d="M500 238h-500v44h500v-44z" />
    <glyph glyph-name="emdash" unicode="&#x2014;" horiz-adv-x="1000" 
d="M1000 282v-44h-1000v44h1000z" />
    <glyph glyph-name="quoteleft" unicode="&#x2018;" horiz-adv-x="222" 
d="M146 492h-86v90l63 150h39l-58 -150h42v-90z" />
    <glyph glyph-name="quoteright" unicode="&#x2019;" horiz-adv-x="222" 
d="M76 722h86v-90l-63 -150h-39l58 150h-42v90z" />
    <glyph glyph-name="quotesinglbase" unicode="&#x201a;" horiz-adv-x="222" 
d="M76 90h86v-90l-63 -150h-39l58 150h-42v90z" />
    <glyph glyph-name="quotedblleft" unicode="&#x201c;" horiz-adv-x="444" 
d="M183 492h-86v90l63 150h39l-58 -150h42v-90zM350 492h-86v90l63 150h39l-58 -150h42v-90z" />
    <glyph glyph-name="quotedblright" unicode="&#x201d;" horiz-adv-x="444" 
d="M261 722h86v-90l-63 -150h-39l58 150h-42v90zM94 722h86v-90l-63 -150h-39l58 150h-42v90z" />
    <glyph glyph-name="quotedblbase" unicode="&#x201e;" horiz-adv-x="444" 
d="M261 90h86v-90l-63 -150h-39l58 150h-42v90zM94 90h86v-90l-63 -150h-39l58 150h-42v90z" />
    <glyph glyph-name="dagger" unicode="&#x2020;" horiz-adv-x="500" 
d="M264 -80h-28l-20 404l18 177l-152 -18v62l152 -17l-14 204h60l-14 -204l152 17v-62l-152 18l18 -177z" />
    <glyph glyph-name="daggerdbl" unicode="&#x2021;" horiz-adv-x="500" 
d="M418 545v-62l-152 18l18 -175l-18 -175l152 18v-62l-152 17l14 -204h-60l14 204l-152 -17v62l152 -18l-18 175l18 175l-152 -18v62l152 -17l-14 204h60l-14 -204z" />
    <glyph glyph-name="bullet" unicode="&#x2022;" horiz-adv-x="500" 
d="M69 361q0 75 52.5 127.5t127.5 52.5t128 -52.5t53 -127.5t-53 -128t-128 -53t-127.5 53t-52.5 128z" />
    <glyph glyph-name="ellipsis" unicode="&#x2026;" horiz-adv-x="1000" 
d="M210 0h-86v90h86v-90zM543 0h-86v90h86v-90zM876 0h-86v90h86v-90z" />
    <glyph glyph-name="perthousand" unicode="&#x2030;" horiz-adv-x="1000" 
d="M836 297q62 0 106 -44t44 -105t-44 -105t-106 -44t-106 44t-44 105t44 105t106 44zM836 253q-43 0 -74.5 -31.5t-31.5 -73.5t31.5 -73.5t74.5 -31.5t74.5 31.5t31.5 73.5t-31.5 73.5t-74.5 31.5zM467 297q62 0 106 -44t44 -105t-44 -105t-106 -44t-106 44t-44 105t44 105
t106 44zM467 253q-43 0 -74.5 -31.5t-31.5 -73.5t31.5 -73.5t74.5 -31.5t74.5 31.5t31.5 73.5t-31.5 73.5t-74.5 31.5zM164 722q62 0 106 -44t44 -105t-44 -105t-106 -44t-106 44t-44 105t44 105t106 44zM164 678q-43 0 -74.5 -31.5t-31.5 -73.5t31.5 -73.5t74.5 -31.5
t74.5 31.5t31.5 73.5t-31.5 73.5t-74.5 31.5zM544 732l-408 -742h-52l408 742h52z" />
    <glyph glyph-name="guilsinglleft" unicode="&#x2039;" horiz-adv-x="333" 
d="M251 414l-124 -152l124 -156h-66l-121 156l121 152h66z" />
    <glyph glyph-name="guilsinglright" unicode="&#x203a;" horiz-adv-x="333" 
d="M82 106l124 152l-124 156h66l121 -156l-121 -152h-66z" />
    <glyph glyph-name="fraction" unicode="&#x2044;" horiz-adv-x="167" 
d="M-167 -10l444 742h57l-442 -742h-59z" />
    <glyph glyph-name="fraction" unicode="&#x2215;" horiz-adv-x="167" 
d="M-167 -10l444 742h57l-442 -742h-59z" />
    <glyph glyph-name="Euro" unicode="&#x20ac;" 
d="M512 680v-69q-58 60 -156 60q-87 0 -135.5 -60t-58.5 -154h304l-18 -53h-293q-1 -11 -1 -41q0 -8 0.5 -22.5t0.5 -18.5h265l-18 -53h-240q12 -104 62 -161t133 -57q93 0 155 60v-70q-22 -20 -65 -35t-98 -15q-216 0 -250 278h-71l18 53h48q-2 18 -2 41q0 7 0.5 21.5
t0.5 19.5h-65l18 53h52q15 125 76.5 200t174.5 75q107 0 163 -52z" />
    <glyph glyph-name="trademark" unicode="&#x2122;" horiz-adv-x="990" 
d="M374 722v-44h-133v-368h-50v368h-137v44h320zM533 722l133 -328l129 328h85v-412h-50v368h-2l-149 -368h-30l-149 368h-2v-368h-50v412h85z" />
    <glyph glyph-name="minus" unicode="&#x2212;" horiz-adv-x="600" 
d="M560 233h-520v54h520v-54z" />
    <glyph glyph-name="fi" unicode="&#xfb01;" horiz-adv-x="500" 
d="M262 472h-106v-472h-60v472h-86v48h86v74q0 69 30 103.5t95 34.5q21 0 65 -8v-50q-32 10 -59 10q-36 0 -53.5 -19.5t-17.5 -63.5v-81h106v-48zM419 520v-520h-60v520h60zM419 634h-60v88h60v-88z" />
    <glyph glyph-name="fl" unicode="&#xfb02;" horiz-adv-x="500" 
d="M262 472h-106v-472h-60v472h-86v48h86v74q0 69 30 103.5t95 34.5q21 0 65 -8v-50q-32 10 -59 10q-36 0 -53.5 -19.5t-17.5 -63.5v-81h106v-48zM359 0v722h60v-722h-60z" />
    </font>
</defs>
</svg>
